# xmcd
#
# Track frame offsets:
#	150
#	12027
#	24247
#	38810
#	52390
#	63622
#	78417
#	105452
#	119095
#	127327
#	136535
#
# Disc length: 2089 seconds
#
# Revision: 1
# Processed by: cddbd v1.5.1PL0 Copyright (c) Steve Scherf et al.
# Submitted via: audiograbber 1.83.01
#
DISCID=9508270b
DTITLE=MARTINHO DA VILA - MEMÓRIAS DE UM SARGENTO DE MILÍCIAS
DYEAR=1900
DGENRE=SAMBA
TTITLE0=SEGURE TUDO
TTITLE1=A FLOR E O SAMBA
TTITLE2=CAMAFEU
TTITLE3=PODE ENCOMENDAR O SEU CAIXÃO
TTITLE4=DIA FINAL
TTITLE5=MENINA-MOÇA
TTITLE6=SELEÇÃO DE PARTIDO ALTO
TTITLE7=PARA VOCÊ, FELICIDADE
TTITLE8=QUEM PODE, PODE
TTITLE9=O NOSSO OLHAR
TTITLE10=MEMÓRIAS DE UM SARGENTO DE MILÍCIAS
EXTD=
EXTT0=
EXTT1=
EXTT2=
EXTT3=
EXTT4=
EXTT5=
EXTT6=
EXTT7=
EXTT8=
EXTT9=
EXTT10=
PLAYORDER=
